#!OML:ASF H:\charlestonDancing\Project 1\Capture day 1\Session 1\femaleDancer.ASF
:FULLY-SPECIFIED
:DEGREES
159
root 0.363041 17.8903 -1.94852 -2.31196 -72.3319 17.448
lowerback 18.834 1.06615 7.42562
upperback 2.69487 2.90101 2.04962
thorax -7.35613 1.15537 -2.70138
lowerneck -0.00172478 -1.06872 2.91863
upperneck -1.0301 -1.49137 -5.59217
head -0.389391 -0.744916 -2.24843
rclavicle 1.74931e-014 1.27222e-014
rhumerus -23.9672 0.0359369 -57.3442
rradius 67.3467
rwrist 22.3994
rhand -41 -45.4643
rfingers 7.12502
rthumb -13.9316 -74.9776
lclavicle 1.74931e-014 1.27222e-014
lhumerus -57.2399 23.5155 13.2368
lradius 138.639
lwrist 11.7433
lhand -16.6063 -9.78658
lfingers 7.12502
lthumb 9.61518 19.974
rfemur -35.1666 -8.55052 20.9968
rtibia 39.3085
rfoot -18.1936 -8.81905
rtoes -8.07
lfemur -16.8396 -8.53496 -21.8327
ltibia 47.0228
lfoot -27.1677 2.5773
ltoes -19.8324
160
root 0.398042 17.8301 -1.93011 0.764759 -72.1329 14.3674
lowerback 18.7925 0.910925 8.28699
upperback 2.46976 2.90995 2.40655
thorax -7.55486 1.12513 -2.80231
lowerneck 0.288078 -1.14152 2.91499
upperneck -1.19903 -1.59716 -5.86332
head -0.49985 -0.791948 -2.33516
rclavicle 6.67916e-014 3.49861e-014
rhumerus -23.1612 -0.00354206 -56.4722
rradius 66.602
rwrist 23.2008
rhand -40.8584 -45.5397
rfingers 7.12502
rthumb -13.7952 -75.0623
lclavicle 6.67916e-014 3.49861e-014
lhumerus -57.2934 23.8368 12.3924
lradius 138.778
lwrist 12.5215
lhand -16.3323 -9.64711
lfingers 7.12502
lthumb 9.87953 20.1011
rfemur -35.8181 -8.55014 21.9588
rtibia 39.978
rfoot -17.892 -9.13599
rtoes -9.6347
lfemur -14.991 -9.79873 -20.3587
ltibia 41.236
lfoot -28.4322 3.04023
ltoes -22.0348
161
root 0.444334 17.7924 -1.90841 4.92655 -71.7795 10.1449
lowerback 18.6685 0.738364 9.5653
upperback 2.36623 2.96327 2.91523
thorax -7.55702 1.11087 -2.97388
lowerneck 0.528586 -1.25573 2.70683
upperneck -1.57986 -1.77004 -5.9609
head -0.667784 -0.870481 -2.32693
rclavicle -4.69132e-014 -5.725e-014
rhumerus -22.482 -0.485069 -55.6242
rradius 65.9838
rwrist 24.273
rhand -40.7543 -45.4996
rfingers 7.12502
rthumb -13.6948 -75.029
lclavicle -4.69132e-014 -5.725e-014
lhumerus -57.0618 24.4541 12.1034
lradius 138.967
lwrist 13.1259
lhand -15.893 -9.32808
lfingers 7.12502
lthumb 10.3033 20.3995
rfemur -36.2826 -8.63652 23.286
rtibia 40.347
rfoot -17.3593 -9.28981
rtoes -11.0206
lfemur -13.9538 -11.2506 -18.706
ltibia 37.1042
lfoot -28.8969 4.78622
ltoes -25.8763
162
root 0.502408 17.777 -1.89136 10.4309 -71.1433 4.07377
lowerback 19.0858 0.495777 11.5806
upperback 2.36115 3.13407 3.57228
thorax -7.69718 1.11738 -3.42852
lowerneck 0.926393 -1.50534 2.59056
upperneck -2.12391 -2.13029 -6.01561
head -0.924108 -1.03837 -2.31844
rclavicle 0 6.04305e-014
rhumerus -22.2208 -1.34136 -54.9307
rradius 65.5761
rwrist 24.9782
rhand -40.4967 -45.5789
rfingers 7.12502
rthumb -13.4465 -75.1249
lclavicle 0 6.04305e-014
lhumerus -56.4161 25.0977 12.4799
lradius 139.257
lwrist 13.3533
lhand -15.39 -8.96238
lfingers 7.12502
lthumb 10.7886 20.7406
rfemur -36.0907 -8.63355 25.2218
rtibia 40.3937
rfoot -16.9739 -9.58754
rtoes -11.3585
lfemur -13.1317 -12.1029 -16.5098
ltibia 34.6343
lfoot -28.5711 3.4618
ltoes -25.0827
163
root 0.571637 17.7724 -1.87481 8.83563 -70.6474 5.95908
lowerback 19.0767 0.548798 11.1744
upperback 2.30007 3.12736 3.48578
thorax -7.779 1.12327 -3.29771
lowerneck 1.5554 -1.91479 2.66517
upperneck -2.84106 -2.70424 -5.98612
head -1.28931 -1.3091 -2.31112
rclavicle 5.56597e-015 -3.02153e-014
rhumerus -22.3487 -2.46995 -54.5198
rradius 65.3395
rwrist 24.894
rhand -40.2883 -45.6105
rfingers 7.12502
rthumb -13.2457 -75.1697
lclavicle 5.56597e-015 -3.02153e-014
lhumerus -55.2955 25.6344 13.4474
lradius 139.619
lwrist 13.2316
lhand -15.0089 -8.72641
lfingers 7.12502
lthumb 11.1562 20.957
rfemur -36.5765 -8.86897 24.3843
rtibia 40.4194
rfoot -16.4581 -9.76301
rtoes -11.3687
lfemur -13.3564 -12.522 -17.2827
ltibia 33.5583
lfoot -27.2511 0.780529
ltoes -20.5885
164
root 0.636665 17.8033 -1.8679 6.48962 -69.8394 8.50303
lowerback 18.9801 0.489447 10.4144
upperback 2.39289 2.87054 3.3654
thorax -7.69022 1.03411 -2.94312
lowerneck 2.00711 -2.25836 2.8331
upperneck -3.34907 -3.17507 -5.91235
head -1.5562 -1.5351 -2.3057
rclavicle 1.23246e-013 -1.27222e-014
rhumerus -22.4099 -3.5495 -54.5596
rradius 65.1343
rwrist 24.2223
rhand -40.0991 -45.8749
rfingers 7.12502
rthumb -13.0633 -75.4458
lclavicle 1.23246e-013 -1.27222e-014
lhumerus -54.1102 26.1621 14.754
lradius 140.066
lwrist 12.8184
lhand -14.5792 -8.79644
lfingers 7.12502
lthumb 11.5706 20.8642
rfemur -36.6853 -8.99817 23.1643
rtibia 40.2047
rfoot -16.1069 -10.3265
rtoes -10.6779
lfemur -13.8846 -12.2323 -18.453
ltibia 33.472
lfoot -25.7029 -1.30854
ltoes -22.1332
165
root 0.695544 17.8595 -1.85934 3.78154 -68.4422 11.3072
lowerback 18.7224 0.174997 9.54611
upperback 2.60125 2.2277 3.21304
thorax -7.42693 0.772679 -2.4649
lowerneck 2.23249 -2.49826 3.01796
upperneck -3.53698 -3.48718 -5.75433
head -1.67221 -1.69018 -2.2781
rclavicle -4.85035e-014 -3.65764e-014
rhumerus -22.4421 -4.44327 -55.1141
rradius 64.886
rwrist 23.413
rhand -39.9184 -46.2529
rfingers 7.12502
rthumb -12.8891 -75.8349
lclavicle -4.85035e-014 -3.65764e-014
lhumerus -52.8672 26.6143 16.3834
lradius 140.591
lwrist 12.011
lhand -14.133 -8.93698
lfingers 7.12502
lthumb 12.0009 20.699
rfemur -36.419 -9.39698 21.6473
rtibia 39.8757
rfoot -15.9337 -11.1712
rtoes -9.54646
lfemur -14.5249 -12.0269 -19.928
ltibia 34.0069
lfoot -24.1114 -3.94194
ltoes -23.7986
